<svg xmlns="http://www.w3.org/2000/svg" width="24" height="24" viewBox="0 0 24 24"><defs><style>.a{fill:#ffffff;}</style></defs><path class="a" d="M23.3,22.594h-.483V7.243a.7.7,0,0,0-.7-.7H12.7V.7A.7.7,0,0,0,12,0H1.889a.7.7,0,0,0-.7.7V22.594H.7A.7.7,0,0,0,.7,24H23.3a.7.7,0,0,0,0-1.406ZM2.592,1.406h8.7V22.594H9.483V17.1a.7.7,0,0,0-.7-.7H5.11a.7.7,0,0,0-.7.7v5.5H2.592ZM5.813,22.594V17.8H8.076v4.793Zm10.111,0V17.8h2.264v4.793Zm3.67,0V17.1a.7.7,0,0,0-.7-.7h-3.67a.7.7,0,0,0-.7.7v5.5H12.7V7.946h8.7V22.594Z" transform="translate(0)"/><path class="a" d="M94.633,70.631H97.9A.626.626,0,0,0,98.529,70V66.935a.626.626,0,0,0-.626-.626H94.633a.626.626,0,0,0-.626.626V70A.626.626,0,0,0,94.633,70.631Zm.626-3.069h2.016v1.817H95.26Z" transform="translate(-89.471 -63.54)"/><path class="a" d="M94.633,210.276H97.9a.626.626,0,0,0,.626-.626V206.58a.626.626,0,0,0-.626-.626H94.633a.626.626,0,0,0-.626.626v3.069A.626.626,0,0,0,94.633,210.276Zm.626-3.069h2.016v1.817H95.26Z" transform="translate(-89.471 -196.033)"/><path class="a" d="M313.6,205.954H310.33a.626.626,0,0,0-.626.626v3.069a.626.626,0,0,0,.626.626H313.6a.626.626,0,0,0,.626-.626V206.58A.626.626,0,0,0,313.6,205.954Zm-.626,3.069h-2.016v-1.817h2.016Z" transform="translate(-294.761 -196.033)"/></svg>