<svg xmlns="http://www.w3.org/2000/svg" width="24" height="24" viewBox="0 0 24 24"><defs><style>.a{fill:#fff;}</style></defs><path class="a" d="M12,0A12,12,0,1,0,24,12,11.993,11.993,0,0,0,12,0Zm0,22.4A10.4,10.4,0,1,1,22.4,12,10.412,10.412,0,0,1,12,22.4Z"/><g transform="translate(10.667 14.623)"><path class="a" d="M228.6,311.95a1.042,1.042,0,0,0,0,2.084,1.042,1.042,0,1,0,0-2.084Z" transform="translate(-227.572 -311.95)"/></g><g transform="translate(9.206 6.735)"><path class="a" d="M199.064,143.679c-1.826,0-2.665,1.082-2.665,1.813a.776.776,0,0,0,.812.771c.731,0,.433-1.042,1.813-1.042.677,0,1.218.3,1.218.92,0,.731-.758,1.15-1.2,1.529a2.477,2.477,0,0,0-.907,2.057c0,.7.189.906.744.906.663,0,.8-.3.8-.555a1.7,1.7,0,0,1,.758-1.691,3.463,3.463,0,0,0,1.515-2.476C201.946,144.64,200.8,143.679,199.064,143.679Z" transform="translate(-196.399 -143.679)"/></g></svg>