<svg xmlns="http://www.w3.org/2000/svg" width="24" height="24.039" viewBox="0 0 24 24.039"><defs><style>.a{fill:#fff;}</style></defs><g transform="translate(-92.8 -60.265)"><path class="a" d="M111.729,67.214a6.957,6.957,0,0,0-7.15-6.947,7.027,7.027,0,0,0-6.747,6.857,6.944,6.944,0,0,0,3.016,5.816A12.043,12.043,0,0,0,92.8,83.273a.948.948,0,0,0,.94,1.031h0a.928.928,0,0,0,.93-.845,10.156,10.156,0,0,1,10.107-9.3,6.957,6.957,0,0,0,6.948-6.948Zm-6.948,5.07a5.071,5.071,0,1,1,5.07-5.07,5.076,5.076,0,0,1-5.07,5.07Zm4.037,6.384h7.043a.94.94,0,0,1,.939.939h0a.94.94,0,0,1-.939.94h-7.043a.939.939,0,0,1-.939-.94h0A.939.939,0,0,1,108.818,78.669Zm7.982-2.816h0a.94.94,0,0,1-.939.939h-7.043a.939.939,0,0,1-.939-.939h0a.939.939,0,0,1,.939-.939h7.043A.939.939,0,0,1,116.8,75.853Zm-7.982,6.573h7.043a.939.939,0,0,1,.939.939h0a.939.939,0,0,1-.939.939h-7.043a.939.939,0,0,1-.939-.939h0A.939.939,0,0,1,108.818,82.426Zm-.939,0" transform="translate(0 0)"/></g></svg>