<svg xmlns="http://www.w3.org/2000/svg" width="26" height="28.667" viewBox="0 0 26 28.667"><defs><style>.a{fill:none;stroke:#000;stroke-linecap:round;stroke-linejoin:round;stroke-width:2px;}</style></defs><g transform="translate(-3.5 -2)"><path class="a" d="M30.5,7a4,4,0,1,1-4-4A4,4,0,0,1,30.5,7Z" transform="translate(-2 0)"/><path class="a" d="M12.5,17.5a4,4,0,1,1-4-4A4,4,0,0,1,12.5,17.5Z" transform="translate(0 -1.167)"/><path class="a" d="M30.5,28a4,4,0,1,1-4-4A4,4,0,0,1,30.5,28Z" transform="translate(-2 -2.333)"/><path class="a" d="M12.885,20.265l9.107,5.307" transform="translate(-0.932 -1.918)"/><path class="a" d="M21.978,9.765l-9.093,5.307" transform="translate(-0.932 -0.752)"/></g></svg>