<svg xmlns="http://www.w3.org/2000/svg" xmlns:xlink="http://www.w3.org/1999/xlink" width="24" height="24" viewBox="0 0 24 24"><defs><style>.a{fill:#d7d8d8;}.b{clip-path:url(#a);}.c{fill:#32373c;}</style><clipPath id="a"><path class="a" d="M0,12A12,12,0,1,1,12,24,12.014,12.014,0,0,1,0,12Zm2.4,0A9.6,9.6,0,1,0,12,2.4,9.611,9.611,0,0,0,2.4,12Zm8.267,6.666V9.852h2.666v8.814Zm0-12.074a1.335,1.335,0,0,1,2.666,0,1.335,1.335,0,0,1-2.666,0Z"/></clipPath></defs><path class="a" d="M0,12A12,12,0,1,1,12,24,12.014,12.014,0,0,1,0,12Zm2.4,0A9.6,9.6,0,1,0,12,2.4,9.611,9.611,0,0,0,2.4,12Zm8.267,6.666V9.852h2.666v8.814Zm0-12.074a1.335,1.335,0,0,1,2.666,0,1.335,1.335,0,0,1-2.666,0Z" transform="translate(0 0)"/><g class="b" transform="translate(0 0)"><g transform="translate(0 0)"><rect class="c" width="24" height="24"/></g></g></svg>